{
  "accessors": [
    {
      "bufferView": 2,
      "componentType": 5126,
      "count": 3243,
      "max": [
        0.2703239917755127,
        1.0,
        0.18078599870204926
      ],
      "min": [
        -0.2703239917755127,
        -1.0,
        -0.18078599870204926
      ],
      "type": "VEC3"
    },
    {
      "bufferView": 2,
      "byteOffset": 38916,
      "componentType": 5126,
      "count": 3243,
      "max": [
        0.9999955296516418,
        0.9993556141853333,
        1.0
      ],
      "min": [
        -0.9999409914016724,
        -0.9998517632484436,
        -1.0
      ],
      "type": "VEC3"
    },
    {
      "bufferView": 3,
      "componentType": 5126,
      "count": 3243,
      "max": [
        0.9998509883880615,
        0.9999480247497559,
        0.9991679787635803,
        1.0
      ],
      "min": [
        -0.999754011631012,
        -0.999800980091095,
        -0.9987409710884094,
        -1.0
      ],
      "type": "VEC4"
    },
    {
      "bufferView": 1,
      "componentType": 5126,
      "count": 3243,
      "max": [
        0.9711719751358032,
        0.9980080127716064
      ],
      "min": [
        0.0019379999721422791,
        0.0019920000340789557
      ],
      "type": "VEC2"
    },
    {
      "bufferView": 0,
      "componentType": 5125,
      "count": 15048,
      "type": "SCALAR"
    }
  ],
  "asset": {
    "extras": {
      "author": "CohiTrippy (https://sketchfab.com/CohiTrippy)",
      "license": "CC-BY-4.0 (http://creativecommons.org/licenses/by/4.0/)",
      "source": "https://sketchfab.com/3d-models/skeleton-arm-d106d3a0a91a4e11a4db07f72441e27d",
      "title": "Skeleton Arm"
    },
    "generator": "Sketchfab-12.66.0",
    "version": "2.0"
  },
  "bufferViews": [
    {
      "buffer": 0,
      "byteLength": 60192,
      "name": "floatBufferViews",
      "target": 34963
    },
    {
      "buffer": 0,
      "byteLength": 25944,
      "byteOffset": 60192,
      "byteStride": 8,
      "name": "floatBufferViews",
      "target": 34962
    },
    {
      "buffer": 0,
      "byteLength": 77832,
      "byteOffset": 86136,
      "byteStride": 12,
      "name": "floatBufferViews",
      "target": 34962
    },
    {
      "buffer": 0,
      "byteLength": 51888,
      "byteOffset": 163968,
      "byteStride": 16,
      "name": "floatBufferViews",
      "target": 34962
    }
  ],
  "buffers": [
    {
      "byteLength": 215856,
      "uri": "scene.bin"
    }
  ],
  "images": [
    {
      "uri": "textures/mano_initialShadingGroup_baseColor.jpeg"
    },
    {
      "uri": "textures/mano_initialShadingGroup_metallicRoughness.png"
    },
    {
      "uri": "textures/mano_initialShadingGroup_normal.jpeg"
    }
  ],
  "materials": [
    {
      "doubleSided": true,
      "name": "mano_initialShadingGroup",
      "normalTexture": {
        "index": 2
      },
      "occlusionTexture": {
        "index": 1
      },
      "pbrMetallicRoughness": {
        "baseColorTexture": {
          "index": 0
        },
        "metallicRoughnessTexture": {
          "index": 1
        }
      }
    }
  ],
  "meshes": [
    {
      "name": "defaultMaterial",
      "primitives": [
        {
          "attributes": {
            "NORMAL": 1,
            "POSITION": 0,
            "TANGENT": 2,
            "TEXCOORD_0": 3
          },
          "indices": 4,
          "material": 0,
          "mode": 4
        }
      ]
    }
  ],
  "nodes": [
    {
      "children": [
        1
      ],
      "matrix": [
        0.4280482828617096,
        0.9037558436393738,
        2.0067410924959312e-16,
        0.0,
        0.0,
        2.220446049250313e-16,
        -1.0,
        0.0,
        -0.9037558436393738,
        0.4280482828617096,
        9.504581185686636e-17,
        0.0,
        2.3218967726279516e-07,
        4.6791964791736973e-07,
        3.6942249259653764e-09,
        1.0
      ],
      "name": "Sketchfab_model"
    },
    {
      "children": [
        2
      ],
      "matrix": [
        1.0,
        0.0,
        0.0,
        0.0,
        0.0,
        -4.371139006309477e-08,
        0.999999999999999,
        0.0,
        0.0,
        -0.999999999999999,
        -4.371139006309477e-08,
        0.0,
        0.0,
        0.0,
        0.0,
        1.0
      ],
      "name": "Collada visual scene group"
    },
    {
      "children": [
        3
      ],
      "name": "g"
    },
    {
      "mesh": 0,
      "name": "defaultMaterial"
    }
  ],
  "samplers": [
    {
      "magFilter": 9729,
      "minFilter": 9987,
      "wrapS": 10497,
      "wrapT": 10497
    }
  ],
  "scene": 0,
  "scenes": [
    {
      "name": "Sketchfab_Scene",
      "nodes": [
        0
      ]
    }
  ],
  "textures": [
    {
      "sampler": 0,
      "source": 0
    },
    {
      "sampler": 0,
      "source": 1
    },
    {
      "sampler": 0,
      "source": 2
    }
  ]
}
