# Blender v3.3.1 OBJ File: ''
# www.blender.org
mtllib room2.mtl
o room
v -50.000000 2.099992 50.000000
v -39.999996 2.099992 50.000000
v -30.000002 2.099992 50.000000
v -19.999998 2.099992 50.000000
v -9.999999 2.099992 50.000000
v 0.000000 2.099992 50.000000
v 10.000002 2.099992 50.000000
v 19.999998 2.099992 50.000000
v 30.000002 2.099992 50.000000
v 40.000004 2.099992 50.000000
v 50.000000 2.099992 50.000000
v -50.000000 2.099993 39.999996
v -39.999996 2.099993 39.999996
v -30.000002 2.099993 39.999996
v -19.999998 2.099993 39.999996
v -9.999999 2.099993 39.999996
v 0.000000 2.099993 39.999996
v 10.000002 2.099993 39.999996
v 19.999998 2.099993 39.999996
v 30.000002 2.099993 39.999996
v 40.000004 2.099993 39.999996
v 50.000000 2.099993 39.999996
v -50.000000 2.099995 30.000002
v -39.999996 2.099995 30.000002
v -30.000002 2.099995 30.000002
v -19.999998 2.099995 30.000002
v -9.999999 2.099995 30.000002
v 0.000000 2.099995 30.000002
v 10.000002 2.099995 30.000002
v 19.999998 2.099995 30.000002
v 30.000002 2.099995 30.000002
v 40.000004 2.099995 30.000002
v 50.000000 2.099995 30.000002
v -50.000000 2.099997 19.999998
v -39.999996 2.099997 19.999998
v -30.000002 2.099997 19.999998
v -19.999998 2.099997 19.999998
v -9.999999 2.099997 19.999998
v 0.000000 2.099997 19.999998
v 10.000002 2.099997 19.999998
v 19.999998 2.099997 19.999998
v 30.000002 2.099997 19.999998
v 40.000004 2.099997 19.999998
v 50.000000 2.099997 19.999998
v -50.000000 2.099998 9.999999
v -39.999996 2.099998 9.999999
v -30.000002 2.099998 9.999999
v -19.999998 2.099998 9.999999
v -9.999999 2.099998 9.999999
v 0.000000 2.099998 9.999999
v 10.000002 2.099998 9.999999
v 19.999998 2.099998 9.999999
v 30.000002 2.099998 9.999999
v 40.000004 2.099998 9.999999
v 50.000000 2.099998 9.999999
v -50.000000 2.100000 0.000000
v -39.999996 2.100000 0.000000
v -30.000002 2.100000 0.000000
v -19.999998 2.100000 0.000000
v -9.999999 2.100000 0.000000
v 0.000000 2.100000 0.000000
v 10.000002 2.100000 0.000000
v 19.999998 2.100000 0.000000
v 30.000002 2.100000 0.000000
v 40.000004 2.100000 0.000000
v 50.000000 2.100000 0.000000
v -50.000000 2.100002 -10.000002
v -39.999996 2.100002 -10.000002
v -30.000002 2.100002 -10.000002
v -19.999998 2.100002 -10.000002
v -9.999999 2.100002 -10.000002
v 0.000000 2.100002 -10.000002
v 10.000002 2.100002 -10.000002
v 19.999998 2.100002 -10.000002
v 30.000002 2.100002 -10.000002
v 40.000004 2.100002 -10.000002
v 50.000000 2.100002 -10.000002
v -50.000000 2.100003 -19.999998
v -39.999996 2.100003 -19.999998
v -30.000002 2.100003 -19.999998
v -19.999998 2.100003 -19.999998
v -9.999999 2.100003 -19.999998
v 0.000000 2.100003 -19.999998
v 10.000002 2.100003 -19.999998
v 19.999998 2.100003 -19.999998
v 30.000002 2.100003 -19.999998
v 40.000004 2.100003 -19.999998
v 50.000000 2.100003 -19.999998
v -50.000000 2.100005 -30.000002
v -39.999996 2.100005 -30.000002
v -30.000002 2.100005 -30.000002
v -19.999998 2.100005 -30.000002
v -9.999999 2.100005 -30.000002
v 0.000000 2.100005 -30.000002
v 10.000002 2.100005 -30.000002
v 19.999998 2.100005 -30.000002
v 30.000002 2.100005 -30.000002
v 40.000004 2.100005 -30.000002
v 50.000000 2.100005 -30.000002
v -50.000000 2.100007 -40.000004
v -39.999996 2.100007 -40.000004
v -30.000002 2.100007 -40.000004
v -19.999998 2.100007 -40.000004
v -9.999999 2.100007 -40.000004
v 0.000000 2.100007 -40.000004
v 10.000002 2.100007 -40.000004
v 19.999998 2.100007 -40.000004
v 30.000002 2.100007 -40.000004
v 40.000004 2.100007 -40.000004
v 50.000000 2.100007 -40.000004
v -50.000000 2.100008 -50.000000
v -39.999996 2.100008 -50.000000
v -30.000002 2.100008 -50.000000
v -19.999998 2.100008 -50.000000
v -9.999999 2.100008 -50.000000
v 0.000000 2.100008 -50.000000
v 10.000002 2.100008 -50.000000
v 19.999998 2.100008 -50.000000
v 30.000002 2.100008 -50.000000
v 40.000004 2.100008 -50.000000
v 50.000000 2.100008 -50.000000
v -50.000000 17.140190 50.000004
v -39.999996 17.140190 50.000004
v -50.000000 17.140192 40.000000
v -30.000002 17.140190 50.000004
v -19.999998 17.140190 50.000004
v -9.999999 17.140190 50.000004
v 0.000000 17.140190 50.000004
v 10.000002 17.140190 50.000004
v 19.999998 17.140190 50.000004
v 30.000002 17.140190 50.000004
v 40.000004 17.140190 50.000004
v 50.000000 17.140190 50.000004
v 50.000000 17.140192 40.000000
v -50.000000 17.140194 30.000004
v 50.000000 17.140194 30.000004
v -50.000000 17.140196 20.000000
v 50.000000 17.140196 20.000000
v -50.000000 17.140196 10.000002
v 50.000000 17.140196 10.000002
v -50.000000 17.140200 0.000002
v 50.000000 17.140200 0.000002
v -50.000000 17.140200 -9.999999
v 50.000000 17.140200 -9.999999
v -50.000000 17.140202 -19.999996
v 50.000000 17.140202 -19.999996
v -50.000000 17.140203 -30.000000
v 50.000000 17.140203 -30.000000
v -50.000000 17.140205 -40.000000
v 50.000000 17.140205 -40.000000
v -50.000000 17.140207 -49.999996
v 50.000000 17.140207 -49.999996
v -39.999996 17.140207 -49.999996
v -30.000002 17.140207 -49.999996
v -19.999998 17.140207 -49.999996
v -9.999999 17.140207 -49.999996
v 0.000000 17.140207 -49.999996
v 10.000002 17.140207 -49.999996
v 19.999998 17.140207 -49.999996
v 30.000002 17.140207 -49.999996
v 40.000004 17.140207 -49.999996
v -50.000000 15.372804 50.000004
v -40.000000 15.372804 50.000004
v -30.000002 15.372804 50.000004
v -19.999998 15.372804 50.000004
v -9.999999 15.372804 50.000004
v 0.000000 15.372804 50.000004
v 10.000002 15.372804 50.000004
v 19.999998 15.372804 50.000004
v 30.000002 15.372804 50.000004
v 40.000004 15.372804 50.000004
v 50.000000 15.372804 50.000004
v -50.000000 15.372806 40.000004
v -40.000000 15.372806 40.000004
v -30.000002 15.372806 40.000004
v -19.999998 15.372806 40.000004
v -9.999999 15.372806 40.000004
v 0.000000 15.372806 40.000004
v 10.000002 15.372806 40.000004
v 19.999998 15.372806 40.000004
v 30.000002 15.372806 40.000004
v 40.000004 15.372806 40.000004
v 50.000000 15.372806 40.000004
v -50.000000 15.372808 30.000004
v -40.000000 15.372808 30.000004
v -30.000002 15.372808 30.000004
v -19.999998 15.372808 30.000004
v -9.999999 15.372808 30.000004
v 0.000000 15.372808 30.000004
v 10.000002 15.372808 30.000004
v 19.999998 15.372808 30.000004
v 30.000002 15.372808 30.000004
v 40.000004 15.372808 30.000004
v 50.000000 15.372808 30.000004
v -50.000000 15.372809 20.000000
v -40.000000 15.372809 20.000000
v -30.000002 15.372809 20.000000
v -19.999998 15.372809 20.000000
v -9.999999 15.372809 20.000000
v 0.000000 15.372809 20.000000
v 10.000002 15.372809 20.000000
v 19.999998 15.372809 20.000000
v 30.000002 15.372809 20.000000
v 40.000004 15.372809 20.000000
v 50.000000 15.372809 20.000000
v -50.000000 15.372810 10.000001
v -40.000000 15.372810 10.000001
v -30.000002 15.372810 10.000001
v -19.999998 15.372810 10.000001
v -9.999999 15.372810 10.000001
v 0.000000 15.372810 10.000001
v 10.000002 15.372810 10.000001
v 19.999998 15.372810 10.000001
v 30.000002 15.372810 10.000001
v 40.000004 15.372810 10.000001
v 50.000000 15.372810 10.000001
v -50.000000 15.372812 0.000002
v -40.000000 15.372812 0.000002
v -30.000002 15.372812 0.000002
v -19.999998 15.372812 0.000002
v -9.999999 15.372812 0.000002
v 0.000000 15.372812 0.000002
v 10.000002 15.372812 0.000002
v 19.999998 15.372812 0.000002
v 30.000002 15.372812 0.000002
v 40.000004 15.372812 0.000002
v 50.000000 15.372812 0.000002
v -50.000000 15.372814 -10.000000
v -40.000000 15.372814 -10.000000
v -30.000002 15.372814 -10.000000
v -19.999998 15.372814 -10.000000
v -9.999999 15.372814 -10.000000
v 0.000000 15.372814 -10.000000
v 10.000002 15.372814 -10.000000
v 19.999998 15.372814 -10.000000
v 30.000002 15.372814 -10.000000
v 40.000004 15.372814 -10.000000
v 50.000000 15.372814 -10.000000
v -50.000000 15.372815 -19.999996
v -40.000000 15.372815 -19.999996
v -30.000002 15.372815 -19.999996
v -19.999998 15.372815 -19.999996
v -9.999999 15.372815 -19.999996
v 0.000000 15.372815 -19.999996
v 10.000002 15.372815 -19.999996
v 19.999998 15.372815 -19.999996
v 30.000002 15.372815 -19.999996
v 40.000004 15.372815 -19.999996
v 50.000000 15.372815 -19.999996
v -50.000000 15.372817 -30.000000
v -40.000000 15.372817 -30.000000
v -30.000002 15.372817 -30.000000
v -19.999998 15.372817 -30.000000
v -9.999999 15.372817 -30.000000
v 0.000000 15.372817 -30.000000
v 10.000002 15.372817 -30.000000
v 19.999998 15.372817 -30.000000
v 30.000002 15.372817 -30.000000
v 40.000004 15.372817 -30.000000
v 50.000000 15.372817 -30.000000
v -50.000000 15.372819 -40.000000
v -40.000000 15.372819 -40.000000
v -30.000002 15.372819 -40.000000
v -19.999998 15.372819 -40.000000
v -9.999999 15.372819 -40.000000
v 0.000000 15.372819 -40.000000
v 10.000002 15.372819 -40.000000
v 19.999998 15.372819 -40.000000
v 30.000002 15.372819 -40.000000
v 40.000004 15.372819 -40.000000
v 50.000000 15.372819 -40.000000
v -50.000000 15.372821 -49.999996
v -40.000000 15.372821 -49.999996
v -30.000002 15.372821 -49.999996
v -19.999998 15.372821 -49.999996
v -9.999999 15.372821 -49.999996
v 0.000000 15.372821 -49.999996
v 10.000002 15.372821 -49.999996
v 19.999998 15.372821 -49.999996
v 30.000002 15.372821 -49.999996
v 40.000004 15.372821 -49.999996
v 50.000000 15.372821 -49.999996
vt 0.068260 0.415717
vt 0.059524 0.455294
vt 0.000000 0.442155
vt 0.008735 0.402578
vt 0.099101 0.464029
vt 0.085963 0.523554
vt 0.046386 0.514818
vt 0.076995 0.376140
vt 0.017471 0.363001
vt 0.085731 0.336563
vt 0.026206 0.323425
vt 0.094466 0.296986
vt 0.034942 0.283848
vt 0.103202 0.257409
vt 0.043677 0.244271
vt 0.111937 0.217832
vt 0.052413 0.204694
vt 0.120673 0.178255
vt 0.061148 0.165117
vt 0.129408 0.138678
vt 0.069884 0.125540
vt 0.138144 0.099101
vt 0.078619 0.085963
vt 0.146879 0.059524
vt 0.087355 0.046386
vt 0.186456 0.068260
vt 0.160018 0.000000
vt 0.199595 0.008735
vt 0.138678 0.472765
vt 0.125540 0.532289
vt 0.226033 0.076995
vt 0.239171 0.017471
vt 0.178255 0.481500
vt 0.165117 0.541025
vt 0.265610 0.085731
vt 0.278748 0.026206
vt 0.217832 0.490236
vt 0.204694 0.549760
vt 0.305187 0.094466
vt 0.318325 0.034942
vt 0.257409 0.498971
vt 0.244271 0.558496
vt 0.344764 0.103202
vt 0.357902 0.043677
vt 0.296986 0.507707
vt 0.283848 0.567231
vt 0.384341 0.111937
vt 0.397479 0.052413
vt 0.336563 0.516442
vt 0.323425 0.575966
vt 0.423918 0.120673
vt 0.437056 0.061148
vt 0.376140 0.525177
vt 0.363001 0.584702
vt 0.463495 0.129408
vt 0.476633 0.069884
vt 0.415717 0.533913
vt 0.402578 0.593437
vt 0.503072 0.138144
vt 0.516210 0.078619
vt 0.455294 0.542648
vt 0.442155 0.602173
vt 0.542648 0.146879
vt 0.555787 0.087355
vt 0.464029 0.503072
vt 0.523554 0.516210
vt 0.514818 0.555787
vt 0.472765 0.463495
vt 0.532289 0.476633
vt 0.481500 0.423918
vt 0.541025 0.437056
vt 0.490236 0.384341
vt 0.549760 0.397479
vt 0.498971 0.344764
vt 0.558496 0.357902
vt 0.507707 0.305187
vt 0.567231 0.318325
vt 0.516442 0.265610
vt 0.575966 0.278748
vt 0.525178 0.226033
vt 0.584702 0.239172
vt 0.533913 0.186456
vt 0.593437 0.199595
vt 0.602173 0.160018
vt 0.107837 0.424452
vt 0.116572 0.384875
vt 0.125308 0.345298
vt 0.134043 0.305721
vt 0.142779 0.266145
vt 0.151514 0.226568
vt 0.160250 0.186991
vt 0.168985 0.147414
vt 0.177721 0.107837
vt 0.147414 0.433188
vt 0.156149 0.393611
vt 0.164885 0.354034
vt 0.173620 0.314457
vt 0.182356 0.274880
vt 0.191091 0.235303
vt 0.199827 0.195726
vt 0.208562 0.156149
vt 0.217298 0.116572
vt 0.186991 0.441923
vt 0.195726 0.402346
vt 0.204462 0.362769
vt 0.213197 0.323192
vt 0.221933 0.283616
vt 0.230668 0.244039
vt 0.239404 0.204462
vt 0.248139 0.164885
vt 0.256875 0.125308
vt 0.226568 0.450659
vt 0.235303 0.411082
vt 0.244039 0.371505
vt 0.252774 0.331928
vt 0.261510 0.292351
vt 0.270245 0.252774
vt 0.278981 0.213197
vt 0.287716 0.173620
vt 0.296451 0.134043
vt 0.266145 0.459394
vt 0.274880 0.419817
vt 0.283615 0.380240
vt 0.292351 0.340663
vt 0.301086 0.301086
vt 0.309822 0.261510
vt 0.318557 0.221933
vt 0.327293 0.182356
vt 0.336028 0.142779
vt 0.305721 0.468130
vt 0.314457 0.428553
vt 0.323192 0.388976
vt 0.331928 0.349399
vt 0.340663 0.309822
vt 0.349399 0.270245
vt 0.358134 0.230668
vt 0.366870 0.191091
vt 0.375605 0.151514
vt 0.345298 0.476865
vt 0.354034 0.437288
vt 0.362769 0.397711
vt 0.371505 0.358134
vt 0.380240 0.318557
vt 0.388976 0.278981
vt 0.397711 0.239404
vt 0.406447 0.199827
vt 0.415182 0.160250
vt 0.384875 0.485601
vt 0.393611 0.446024
vt 0.402346 0.406447
vt 0.411082 0.366870
vt 0.419817 0.327293
vt 0.428553 0.287716
vt 0.437288 0.248139
vt 0.446024 0.208562
vt 0.454759 0.168985
vt 0.424452 0.494336
vt 0.433188 0.454759
vt 0.441923 0.415182
vt 0.450659 0.375605
vt 0.459394 0.336028
vt 0.468130 0.296451
vt 0.476865 0.256875
vt 0.485601 0.217298
vt 0.494336 0.177721
vt 0.000000 0.594705
vt 0.000000 0.635234
vt 0.040530 0.635234
vt 0.040530 0.594705
vt 0.081059 0.635234
vt 0.081059 0.594705
vt 0.121589 0.635234
vt 0.121589 0.594705
vt 0.162118 0.635234
vt 0.162118 0.594705
vt 0.202648 0.635234
vt 0.202648 0.594705
vt 0.243177 0.635234
vt 0.243177 0.594705
vt 0.283707 0.635234
vt 0.283707 0.594705
vt 0.324236 0.635234
vt 0.324236 0.594705
vt 0.364766 0.635234
vt 0.364766 0.594705
vt 0.405295 0.635234
vt 0.405295 0.594705
vt 0.000000 0.675764
vt 0.040530 0.675764
vt 0.081059 0.675764
vt 0.121589 0.675764
vt 0.162118 0.675764
vt 0.202648 0.675764
vt 0.243177 0.675764
vt 0.283707 0.675764
vt 0.324236 0.675764
vt 0.364766 0.675764
vt 0.405295 0.675764
vt 0.000000 0.716293
vt 0.040530 0.716293
vt 0.081059 0.716293
vt 0.121589 0.716293
vt 0.162118 0.716293
vt 0.202648 0.716293
vt 0.243177 0.716293
vt 0.283707 0.716293
vt 0.324236 0.716293
vt 0.364766 0.716293
vt 0.405295 0.716293
vt 0.000000 0.756823
vt 0.040530 0.756823
vt 0.081059 0.756823
vt 0.121589 0.756823
vt 0.162118 0.756823
vt 0.202648 0.756823
vt 0.243177 0.756823
vt 0.283707 0.756823
vt 0.324236 0.756823
vt 0.364766 0.756823
vt 0.405295 0.756823
vt 0.000000 0.797352
vt 0.040530 0.797352
vt 0.081059 0.797352
vt 0.121589 0.797352
vt 0.162118 0.797352
vt 0.202648 0.797352
vt 0.243177 0.797352
vt 0.283707 0.797352
vt 0.324236 0.797352
vt 0.364766 0.797352
vt 0.405295 0.797352
vt 0.000000 0.837882
vt 0.040530 0.837882
vt 0.081059 0.837882
vt 0.121589 0.837882
vt 0.162118 0.837882
vt 0.202648 0.837882
vt 0.243177 0.837882
vt 0.283707 0.837882
vt 0.324236 0.837882
vt 0.364766 0.837882
vt 0.405295 0.837882
vt 0.000000 0.878411
vt 0.040530 0.878411
vt 0.081059 0.878411
vt 0.121589 0.878411
vt 0.162118 0.878411
vt 0.202648 0.878411
vt 0.243177 0.878411
vt 0.283707 0.878411
vt 0.324236 0.878411
vt 0.364766 0.878411
vt 0.405295 0.878411
vt 0.000000 0.918941
vt 0.040530 0.918941
vt 0.081059 0.918941
vt 0.121589 0.918941
vt 0.162118 0.918941
vt 0.202648 0.918941
vt 0.243177 0.918941
vt 0.283707 0.918941
vt 0.324236 0.918941
vt 0.364766 0.918941
vt 0.405295 0.918941
vt 0.000000 0.959471
vt 0.040530 0.959471
vt 0.081059 0.959471
vt 0.121589 0.959471
vt 0.162118 0.959471
vt 0.202648 0.959471
vt 0.243177 0.959471
vt 0.283707 0.959471
vt 0.324236 0.959471
vt 0.364766 0.959471
vt 0.405295 0.959471
vt 0.000000 1.000000
vt 0.040530 1.000000
vt 0.081059 1.000000
vt 0.121589 1.000000
vt 0.162118 1.000000
vt 0.202648 1.000000
vt 0.243177 1.000000
vt 0.283707 1.000000
vt 0.324236 1.000000
vt 0.364766 1.000000
vt 0.405295 1.000000
vn 0.0000 0.0000 -1.0000
vn 1.0000 0.0000 0.0000
vn -1.0000 0.0000 0.0000
vn 0.0000 -0.0000 1.0000
vn 0.0000 1.0000 0.0000
vn 0.0000 -1.0000 -0.0000
usemtl initialShadingGroup
s off
f 2/1/1 1/2/1 122/3/1 123/4/1
f 1/2/2 12/5/2 124/6/2 122/7/2
f 3/8/1 2/1/1 123/4/1 125/9/1
f 4/10/1 3/8/1 125/9/1 126/11/1
f 5/12/1 4/10/1 126/11/1 127/13/1
f 6/14/1 5/12/1 127/13/1 128/15/1
f 7/16/1 6/14/1 128/15/1 129/17/1
f 8/18/1 7/16/1 129/17/1 130/19/1
f 9/20/1 8/18/1 130/19/1 131/21/1
f 10/22/1 9/20/1 131/21/1 132/23/1
f 11/24/1 10/22/1 132/23/1 133/25/1
f 22/26/3 11/24/3 133/27/3 134/28/3
f 12/5/2 23/29/2 135/30/2 124/6/2
f 33/31/3 22/26/3 134/28/3 136/32/3
f 23/29/2 34/33/2 137/34/2 135/30/2
f 44/35/3 33/31/3 136/32/3 138/36/3
f 34/33/2 45/37/2 139/38/2 137/34/2
f 55/39/3 44/35/3 138/36/3 140/40/3
f 45/37/2 56/41/2 141/42/2 139/38/2
f 66/43/3 55/39/3 140/40/3 142/44/3
f 56/41/2 67/45/2 143/46/2 141/42/2
f 77/47/3 66/43/3 142/44/3 144/48/3
f 67/45/2 78/49/2 145/50/2 143/46/2
f 88/51/3 77/47/3 144/48/3 146/52/3
f 78/49/2 89/53/2 147/54/2 145/50/2
f 99/55/3 88/51/3 146/52/3 148/56/3
f 89/53/2 100/57/2 149/58/2 147/54/2
f 110/59/3 99/55/3 148/56/3 150/60/3
f 100/57/2 111/61/2 151/62/2 149/58/2
f 121/63/3 110/59/3 150/60/3 152/64/3
f 111/61/4 112/65/4 153/66/4 151/67/4
f 112/65/4 113/68/4 154/69/4 153/66/4
f 113/68/4 114/70/4 155/71/4 154/69/4
f 114/70/4 115/72/4 156/73/4 155/71/4
f 115/72/4 116/74/4 157/75/4 156/73/4
f 116/74/4 117/76/4 158/77/4 157/75/4
f 117/76/4 118/78/4 159/79/4 158/77/4
f 118/78/4 119/80/4 160/81/4 159/79/4
f 119/80/4 120/82/4 161/83/4 160/81/4
f 120/82/4 121/63/4 152/84/4 161/83/4
s 1
f 1/2/5 2/1/5 13/85/5 12/5/5
f 2/1/5 3/8/5 14/86/5 13/85/5
f 3/8/5 4/10/5 15/87/5 14/86/5
f 4/10/5 5/12/5 16/88/5 15/87/5
f 5/12/5 6/14/5 17/89/5 16/88/5
f 6/14/5 7/16/5 18/90/5 17/89/5
f 7/16/5 8/18/5 19/91/5 18/90/5
f 8/18/5 9/20/5 20/92/5 19/91/5
f 9/20/5 10/22/5 21/93/5 20/92/5
f 10/22/5 11/24/5 22/26/5 21/93/5
f 12/5/5 13/85/5 24/94/5 23/29/5
f 13/85/5 14/86/5 25/95/5 24/94/5
f 14/86/5 15/87/5 26/96/5 25/95/5
f 15/87/5 16/88/5 27/97/5 26/96/5
f 16/88/5 17/89/5 28/98/5 27/97/5
f 17/89/5 18/90/5 29/99/5 28/98/5
f 18/90/5 19/91/5 30/100/5 29/99/5
f 19/91/5 20/92/5 31/101/5 30/100/5
f 20/92/5 21/93/5 32/102/5 31/101/5
f 21/93/5 22/26/5 33/31/5 32/102/5
f 23/29/5 24/94/5 35/103/5 34/33/5
f 24/94/5 25/95/5 36/104/5 35/103/5
f 25/95/5 26/96/5 37/105/5 36/104/5
f 26/96/5 27/97/5 38/106/5 37/105/5
f 27/97/5 28/98/5 39/107/5 38/106/5
f 28/98/5 29/99/5 40/108/5 39/107/5
f 29/99/5 30/100/5 41/109/5 40/108/5
f 30/100/5 31/101/5 42/110/5 41/109/5
f 31/101/5 32/102/5 43/111/5 42/110/5
f 32/102/5 33/31/5 44/35/5 43/111/5
f 34/33/5 35/103/5 46/112/5 45/37/5
f 35/103/5 36/104/5 47/113/5 46/112/5
f 36/104/5 37/105/5 48/114/5 47/113/5
f 37/105/5 38/106/5 49/115/5 48/114/5
f 38/106/5 39/107/5 50/116/5 49/115/5
f 39/107/5 40/108/5 51/117/5 50/116/5
f 40/108/5 41/109/5 52/118/5 51/117/5
f 41/109/5 42/110/5 53/119/5 52/118/5
f 42/110/5 43/111/5 54/120/5 53/119/5
f 43/111/5 44/35/5 55/39/5 54/120/5
f 45/37/5 46/112/5 57/121/5 56/41/5
f 46/112/5 47/113/5 58/122/5 57/121/5
f 47/113/5 48/114/5 59/123/5 58/122/5
f 48/114/5 49/115/5 60/124/5 59/123/5
f 49/115/5 50/116/5 61/125/5 60/124/5
f 50/116/5 51/117/5 62/126/5 61/125/5
f 51/117/5 52/118/5 63/127/5 62/126/5
f 52/118/5 53/119/5 64/128/5 63/127/5
f 53/119/5 54/120/5 65/129/5 64/128/5
f 54/120/5 55/39/5 66/43/5 65/129/5
f 56/41/5 57/121/5 68/130/5 67/45/5
f 57/121/5 58/122/5 69/131/5 68/130/5
f 58/122/5 59/123/5 70/132/5 69/131/5
f 59/123/5 60/124/5 71/133/5 70/132/5
f 60/124/5 61/125/5 72/134/5 71/133/5
f 61/125/5 62/126/5 73/135/5 72/134/5
f 62/126/5 63/127/5 74/136/5 73/135/5
f 63/127/5 64/128/5 75/137/5 74/136/5
f 64/128/5 65/129/5 76/138/5 75/137/5
f 65/129/5 66/43/5 77/47/5 76/138/5
f 67/45/5 68/130/5 79/139/5 78/49/5
f 68/130/5 69/131/5 80/140/5 79/139/5
f 69/131/5 70/132/5 81/141/5 80/140/5
f 70/132/5 71/133/5 82/142/5 81/141/5
f 71/133/5 72/134/5 83/143/5 82/142/5
f 72/134/5 73/135/5 84/144/5 83/143/5
f 73/135/5 74/136/5 85/145/5 84/144/5
f 74/136/5 75/137/5 86/146/5 85/145/5
f 75/137/5 76/138/5 87/147/5 86/146/5
f 76/138/5 77/47/5 88/51/5 87/147/5
f 78/49/5 79/139/5 90/148/5 89/53/5
f 79/139/5 80/140/5 91/149/5 90/148/5
f 80/140/5 81/141/5 92/150/5 91/149/5
f 81/141/5 82/142/5 93/151/5 92/150/5
f 82/142/5 83/143/5 94/152/5 93/151/5
f 83/143/5 84/144/5 95/153/5 94/152/5
f 84/144/5 85/145/5 96/154/5 95/153/5
f 85/145/5 86/146/5 97/155/5 96/154/5
f 86/146/5 87/147/5 98/156/5 97/155/5
f 87/147/5 88/51/5 99/55/5 98/156/5
f 89/53/5 90/148/5 101/157/5 100/57/5
f 90/148/5 91/149/5 102/158/5 101/157/5
f 91/149/5 92/150/5 103/159/5 102/158/5
f 92/150/5 93/151/5 104/160/5 103/159/5
f 93/151/5 94/152/5 105/161/5 104/160/5
f 94/152/5 95/153/5 106/162/5 105/161/5
f 95/153/5 96/154/5 107/163/5 106/162/5
f 96/154/5 97/155/5 108/164/5 107/163/5
f 97/155/5 98/156/5 109/165/5 108/164/5
f 98/156/5 99/55/5 110/59/5 109/165/5
f 100/57/5 101/157/5 112/65/5 111/61/5
f 101/157/5 102/158/5 113/68/5 112/65/5
f 102/158/5 103/159/5 114/70/5 113/68/5
f 103/159/5 104/160/5 115/72/5 114/70/5
f 104/160/5 105/161/5 116/74/5 115/72/5
f 105/161/5 106/162/5 117/76/5 116/74/5
f 106/162/5 107/163/5 118/78/5 117/76/5
f 107/163/5 108/164/5 119/80/5 118/78/5
f 108/164/5 109/165/5 120/82/5 119/80/5
f 109/165/5 110/59/5 121/63/5 120/82/5
f 162/166/6 173/167/6 174/168/6 163/169/6
f 163/169/6 174/168/6 175/170/6 164/171/6
f 164/171/6 175/170/6 176/172/6 165/173/6
f 165/173/6 176/172/6 177/174/6 166/175/6
f 166/175/6 177/174/6 178/176/6 167/177/6
f 167/177/6 178/176/6 179/178/6 168/179/6
f 168/179/6 179/178/6 180/180/6 169/181/6
f 169/181/6 180/180/6 181/182/6 170/183/6
f 170/183/6 181/182/6 182/184/6 171/185/6
f 171/185/6 182/184/6 183/186/6 172/187/6
f 173/167/6 184/188/6 185/189/6 174/168/6
f 174/168/6 185/189/6 186/190/6 175/170/6
f 175/170/6 186/190/6 187/191/6 176/172/6
f 176/172/6 187/191/6 188/192/6 177/174/6
f 177/174/6 188/192/6 189/193/6 178/176/6
f 178/176/6 189/193/6 190/194/6 179/178/6
f 179/178/6 190/194/6 191/195/6 180/180/6
f 180/180/6 191/195/6 192/196/6 181/182/6
f 181/182/6 192/196/6 193/197/6 182/184/6
f 182/184/6 193/197/6 194/198/6 183/186/6
f 184/188/6 195/199/6 196/200/6 185/189/6
f 185/189/6 196/200/6 197/201/6 186/190/6
f 186/190/6 197/201/6 198/202/6 187/191/6
f 187/191/6 198/202/6 199/203/6 188/192/6
f 188/192/6 199/203/6 200/204/6 189/193/6
f 189/193/6 200/204/6 201/205/6 190/194/6
f 190/194/6 201/205/6 202/206/6 191/195/6
f 191/195/6 202/206/6 203/207/6 192/196/6
f 192/196/6 203/207/6 204/208/6 193/197/6
f 193/197/6 204/208/6 205/209/6 194/198/6
f 195/199/6 206/210/6 207/211/6 196/200/6
f 196/200/6 207/211/6 208/212/6 197/201/6
f 197/201/6 208/212/6 209/213/6 198/202/6
f 198/202/6 209/213/6 210/214/6 199/203/6
f 199/203/6 210/214/6 211/215/6 200/204/6
f 200/204/6 211/215/6 212/216/6 201/205/6
f 201/205/6 212/216/6 213/217/6 202/206/6
f 202/206/6 213/217/6 214/218/6 203/207/6
f 203/207/6 214/218/6 215/219/6 204/208/6
f 204/208/6 215/219/6 216/220/6 205/209/6
f 206/210/6 217/221/6 218/222/6 207/211/6
f 207/211/6 218/222/6 219/223/6 208/212/6
f 208/212/6 219/223/6 220/224/6 209/213/6
f 209/213/6 220/224/6 221/225/6 210/214/6
f 210/214/6 221/225/6 222/226/6 211/215/6
f 211/215/6 222/226/6 223/227/6 212/216/6
f 212/216/6 223/227/6 224/228/6 213/217/6
f 213/217/6 224/228/6 225/229/6 214/218/6
f 214/218/6 225/229/6 226/230/6 215/219/6
f 215/219/6 226/230/6 227/231/6 216/220/6
f 217/221/6 228/232/6 229/233/6 218/222/6
f 218/222/6 229/233/6 230/234/6 219/223/6
f 219/223/6 230/234/6 231/235/6 220/224/6
f 220/224/6 231/235/6 232/236/6 221/225/6
f 221/225/6 232/236/6 233/237/6 222/226/6
f 222/226/6 233/237/6 234/238/6 223/227/6
f 223/227/6 234/238/6 235/239/6 224/228/6
f 224/228/6 235/239/6 236/240/6 225/229/6
f 225/229/6 236/240/6 237/241/6 226/230/6
f 226/230/6 237/241/6 238/242/6 227/231/6
f 228/232/6 239/243/6 240/244/6 229/233/6
f 229/233/6 240/244/6 241/245/6 230/234/6
f 230/234/6 241/245/6 242/246/6 231/235/6
f 231/235/6 242/246/6 243/247/6 232/236/6
f 232/236/6 243/247/6 244/248/6 233/237/6
f 233/237/6 244/248/6 245/249/6 234/238/6
f 234/238/6 245/249/6 246/250/6 235/239/6
f 235/239/6 246/250/6 247/251/6 236/240/6
f 236/240/6 247/251/6 248/252/6 237/241/6
f 237/241/6 248/252/6 249/253/6 238/242/6
f 239/243/6 250/254/6 251/255/6 240/244/6
f 240/244/6 251/255/6 252/256/6 241/245/6
f 241/245/6 252/256/6 253/257/6 242/246/6
f 242/246/6 253/257/6 254/258/6 243/247/6
f 243/247/6 254/258/6 255/259/6 244/248/6
f 244/248/6 255/259/6 256/260/6 245/249/6
f 245/249/6 256/260/6 257/261/6 246/250/6
f 246/250/6 257/261/6 258/262/6 247/251/6
f 247/251/6 258/262/6 259/263/6 248/252/6
f 248/252/6 259/263/6 260/264/6 249/253/6
f 250/254/6 261/265/6 262/266/6 251/255/6
f 251/255/6 262/266/6 263/267/6 252/256/6
f 252/256/6 263/267/6 264/268/6 253/257/6
f 253/257/6 264/268/6 265/269/6 254/258/6
f 254/258/6 265/269/6 266/270/6 255/259/6
f 255/259/6 266/270/6 267/271/6 256/260/6
f 256/260/6 267/271/6 268/272/6 257/261/6
f 257/261/6 268/272/6 269/273/6 258/262/6
f 258/262/6 269/273/6 270/274/6 259/263/6
f 259/263/6 270/274/6 271/275/6 260/264/6
f 261/265/6 272/276/6 273/277/6 262/266/6
f 262/266/6 273/277/6 274/278/6 263/267/6
f 263/267/6 274/278/6 275/279/6 264/268/6
f 264/268/6 275/279/6 276/280/6 265/269/6
f 265/269/6 276/280/6 277/281/6 266/270/6
f 266/270/6 277/281/6 278/282/6 267/271/6
f 267/271/6 278/282/6 279/283/6 268/272/6
f 268/272/6 279/283/6 280/284/6 269/273/6
f 269/273/6 280/284/6 281/285/6 270/274/6
f 270/274/6 281/285/6 282/286/6 271/275/6
