{
	"asset":{
		"generator":"Khronos glTF Blender I/O v4.0.44",
		"version":"2.0"
	},
	"scene":0,
	"scenes":[
		{
			"name":"Scene",
			"nodes":[
				3,
				7,
				12
			]
		}
	],
	"nodes":[
		{
			"name":"flashlight",
			"translation":[
				0,
				2,
				0
			]
		},
		{
			"children":[
				0
			],
			"name":"RootNode"
		},
		{
			"children":[
				1
			],
			"name":"0888e53071d64ef5a60bd70d70133d73.fbx",
			"rotation":[
				0.70710688829422,
				0,
				0,
				0.7071066498756409
			]
		},
		{
			"children":[
				2
			],
			"name":"Sketchfab_model",
			"rotation":[
				-0.70710688829422,
				0,
				0,
				0.7071066498756409
			]
		},
		{
			"mesh":0,
			"name":"defaultMaterial"
		},
		{
			"children":[
				4
			],
			"name":"g"
		},
		{
			"children":[
				5
			],
			"name":"Collada visual scene group",
			"rotation":[
				0.70710688829422,
				0,
				0,
				0.7071066498756409
			]
		},
		{
			"children":[
				6
			],
			"name":"Sketchfab_model.001",
			"rotation":[
				-0.5975048542022705,
				-0.3781374990940094,
				0.3781374990940094,
				0.5975048542022705
			]
		},
		{
			"mesh":1,
			"name":"flashlight__0",
			"rotation":[
				0.27216553688049316,
				0,
				0.6804138422012329,
				0.6804138422012329
			]
		},
		{
			"children":[
				8
			],
			"name":"flashlight.001",
			"translation":[
				0,
				2,
				0
			]
		},
		{
			"children":[
				9
			],
			"name":"RootNode.001"
		},
		{
			"children":[
				10
			],
			"name":"0888e53071d64ef5a60bd70d70133d73.fbx.001",
			"rotation":[
				0.70710688829422,
				0,
				0,
				0.7071066498756409
			]
		},
		{
			"children":[
				11
			],
			"name":"Sketchfab_model.002",
			"rotation":[
				1,
				0,
				0,
				0
			],
			"scale":[
				0.05000000074505806,
				0.05000000074505806,
				0.05000000074505806
			]
		}
	],
	"materials":[
		{
			"doubleSided":true,
			"name":"mano_initialShadingGroup",
			"normalTexture":{
				"index":0
			},
			"occlusionTexture":{
				"index":1
			},
			"pbrMetallicRoughness":{
				"baseColorTexture":{
					"index":2
				},
				"metallicRoughnessTexture":{
					"index":1
				}
			}
		},
		{
			"emissiveFactor":[
				0.7488567233085632,
				0.7488567233085632,
				0.7488567233085632
			],
			"emissiveTexture":{
				"index":3
			},
			"name":"Scene_-_Root.001",
			"normalTexture":{
				"index":4
			},
			"occlusionTexture":{
				"index":5
			},
			"pbrMetallicRoughness":{
				"baseColorTexture":{
					"index":6
				},
				"metallicRoughnessTexture":{
					"index":5
				}
			}
		}
	],
	"meshes":[
		{
			"name":"defaultMaterial",
			"primitives":[
				{
					"attributes":{
						"POSITION":0,
						"NORMAL":1,
						"TEXCOORD_0":2
					},
					"indices":3,
					"material":0
				}
			]
		},
		{
			"name":"flashlight__0.001",
			"primitives":[
				{
					"attributes":{
						"POSITION":4,
						"NORMAL":5,
						"TEXCOORD_0":6
					},
					"indices":7,
					"material":1
				}
			]
		}
	],
	"textures":[
		{
			"sampler":0,
			"source":0
		},
		{
			"sampler":0,
			"source":1
		},
		{
			"sampler":0,
			"source":2
		},
		{
			"sampler":0,
			"source":3
		},
		{
			"sampler":0,
			"source":4
		},
		{
			"sampler":0,
			"source":5
		},
		{
			"sampler":0,
			"source":6
		}
	],
	"images":[
		{
			"mimeType":"image/jpeg",
			"name":"mano_initialShadingGroup_normal",
			"uri":"mano_initialShadingGroup_normal.jpg"
		},
		{
			"mimeType":"image/png",
			"name":"mano_initialShadingGroup_metallicRoughness",
			"uri":"mano_initialShadingGroup_metallicRoughness.png"
		},
		{
			"mimeType":"image/jpeg",
			"name":"mano_initialShadingGroup_baseColor",
			"uri":"mano_initialShadingGroup_baseColor.jpg"
		},
		{
			"mimeType":"image/png",
			"name":"Scene_-_Root_emissive",
			"uri":"Scene_-_Root_emissive.png"
		},
		{
			"mimeType":"image/png",
			"name":"Scene_-_Root_normal",
			"uri":"Scene_-_Root_normal.png"
		},
		{
			"mimeType":"image/png",
			"name":"Scene_-_Root_metallicRoughness",
			"uri":"Scene_-_Root_metallicRoughness.png"
		},
		{
			"mimeType":"image/png",
			"name":"Scene_-_Root_baseColor",
			"uri":"Scene_-_Root_baseColor.png"
		}
	],
	"accessors":[
		{
			"bufferView":0,
			"componentType":5126,
			"count":3243,
			"max":[
				0.2703239917755127,
				1,
				0.18078599870204926
			],
			"min":[
				-0.2703239917755127,
				-1,
				-0.18078599870204926
			],
			"type":"VEC3"
		},
		{
			"bufferView":1,
			"componentType":5126,
			"count":3243,
			"type":"VEC3"
		},
		{
			"bufferView":2,
			"componentType":5126,
			"count":3243,
			"type":"VEC2"
		},
		{
			"bufferView":3,
			"componentType":5123,
			"count":15048,
			"type":"SCALAR"
		},
		{
			"bufferView":4,
			"componentType":5126,
			"count":1637,
			"max":[
				2.776731014251709,
				18.032506942749023,
				2.776731014251709
			],
			"min":[
				-2.776731014251709,
				-18.032506942749023,
				-2.776731014251709
			],
			"type":"VEC3"
		},
		{
			"bufferView":5,
			"componentType":5126,
			"count":1637,
			"type":"VEC3"
		},
		{
			"bufferView":6,
			"componentType":5126,
			"count":1637,
			"type":"VEC2"
		},
		{
			"bufferView":7,
			"componentType":5123,
			"count":6252,
			"type":"SCALAR"
		}
	],
	"bufferViews":[
		{
			"buffer":0,
			"byteLength":38916,
			"byteOffset":0,
			"target":34962
		},
		{
			"buffer":0,
			"byteLength":38916,
			"byteOffset":38916,
			"target":34962
		},
		{
			"buffer":0,
			"byteLength":25944,
			"byteOffset":77832,
			"target":34962
		},
		{
			"buffer":0,
			"byteLength":30096,
			"byteOffset":103776,
			"target":34963
		},
		{
			"buffer":0,
			"byteLength":19644,
			"byteOffset":133872,
			"target":34962
		},
		{
			"buffer":0,
			"byteLength":19644,
			"byteOffset":153516,
			"target":34962
		},
		{
			"buffer":0,
			"byteLength":13096,
			"byteOffset":173160,
			"target":34962
		},
		{
			"buffer":0,
			"byteLength":12504,
			"byteOffset":186256,
			"target":34963
		}
	],
	"samplers":[
		{
			"magFilter":9729,
			"minFilter":9987
		}
	],
	"buffers":[
		{
			"byteLength":198760,
			"uri":"scene02.bin"
		}
	]
}
