{
    "asset" : {
        "generator" : "Khronos glTF Blender I/O v3.3.32",
        "version" : "2.0"
    },
    "scene" : 0,
    "scenes" : [
        {
            "name" : "Scene",
            "nodes" : [
                5
            ]
        }
    ],
    "nodes" : [
        {
            "mesh" : 0,
            "name" : "lantern1_glass_0"
        },
        {
            "mesh" : 1,
            "name" : "lantern1_lantern_0"
        },
        {
            "children" : [
                0,
                1
            ],
            "name" : "lantern1"
        },
        {
            "children" : [
                2
            ],
            "name" : "RootNode"
        },
        {
            "children" : [
                3
            ],
            "name" : "b70da4d0f65541f9a54fb65861a067dd.fbx"
        },
        {
            "children" : [
                4
            ],
            "name" : "Sketchfab_model"
        }
    ],
    "materials" : [
        {
            "alphaMode" : "BLEND",
            "doubleSided" : true,
            "emissiveFactor" : [
                1,
                1,
                1
            ],
            "name" : "glass",
            "normalTexture" : {
                "index" : 0
            },
            "pbrMetallicRoughness" : {
                "baseColorTexture" : {
                    "index" : 1
                },
                "metallicRoughnessTexture" : {
                    "index" : 2
                }
            }
        },
        {
            "doubleSided" : true,
            "name" : "lantern",
            "normalTexture" : {
                "index" : 3
            },
            "pbrMetallicRoughness" : {
                "baseColorTexture" : {
                    "index" : 4
                },
                "metallicRoughnessTexture" : {
                    "index" : 5
                }
            }
        }
    ],
    "meshes" : [
        {
            "name" : "lantern1_glass_0",
            "primitives" : [
                {
                    "attributes" : {
                        "POSITION" : 0,
                        "NORMAL" : 1,
                        "TEXCOORD_0" : 2,
                        "TEXCOORD_1" : 3
                    },
                    "indices" : 4,
                    "material" : 0
                }
            ]
        },
        {
            "name" : "lantern1_lantern_0",
            "primitives" : [
                {
                    "attributes" : {
                        "POSITION" : 5,
                        "NORMAL" : 6,
                        "TEXCOORD_0" : 7,
                        "TEXCOORD_1" : 8,
                        "TEXCOORD_2" : 9
                    },
                    "indices" : 10,
                    "material" : 1
                }
            ]
        }
    ],
    "textures" : [
        {
            "sampler" : 0,
            "source" : 0
        },
        {
            "sampler" : 0,
            "source" : 1
        },
        {
            "sampler" : 0,
            "source" : 2
        },
        {
            "sampler" : 0,
            "source" : 0
        },
        {
            "sampler" : 0,
            "source" : 3
        },
        {
            "sampler" : 0,
            "source" : 2
        }
    ],
    "images" : [
        {
            "mimeType" : "image/png",
            "name" : "lantern_normal",
            "uri" : "lantern_normal.png"
        },
        {
            "mimeType" : "image/png",
            "name" : "lava",
            "uri" : "lava.png"
        },
        {
            "mimeType" : "image/png",
            "name" : "lantern_metallicRoughness",
            "uri" : "lantern_metallicRoughness.png"
        },
        {
            "mimeType" : "image/png",
            "name" : "lantern_baseColor",
            "uri" : "lantern_baseColor.png"
        }
    ],
    "accessors" : [
        {
            "bufferView" : 0,
            "componentType" : 5126,
            "count" : 94,
            "max" : [
                0.07430794835090637,
                0.16690389811992645,
                0.08761259913444519
            ],
            "min" : [
                -0.10630238056182861,
                -0.09519527107477188,
                -0.09561768174171448
            ],
            "type" : "VEC3"
        },
        {
            "bufferView" : 1,
            "componentType" : 5126,
            "count" : 94,
            "type" : "VEC3"
        },
        {
            "bufferView" : 2,
            "componentType" : 5126,
            "count" : 94,
            "type" : "VEC2"
        },
        {
            "bufferView" : 3,
            "componentType" : 5126,
            "count" : 94,
            "type" : "VEC2"
        },
        {
            "bufferView" : 4,
            "componentType" : 5123,
            "count" : 96,
            "type" : "SCALAR"
        },
        {
            "bufferView" : 5,
            "componentType" : 5126,
            "count" : 3490,
            "max" : [
                0.13013669848442078,
                0.5718003511428833,
                0.13551530241966248
            ],
            "min" : [
                -0.1621311902999878,
                -0.24721451103687286,
                -0.14833024144172668
            ],
            "type" : "VEC3"
        },
        {
            "bufferView" : 6,
            "componentType" : 5126,
            "count" : 3490,
            "type" : "VEC3"
        },
        {
            "bufferView" : 7,
            "componentType" : 5126,
            "count" : 3490,
            "type" : "VEC2"
        },
        {
            "bufferView" : 8,
            "componentType" : 5126,
            "count" : 3490,
            "type" : "VEC2"
        },
        {
            "bufferView" : 9,
            "componentType" : 5126,
            "count" : 3490,
            "type" : "VEC2"
        },
        {
            "bufferView" : 10,
            "componentType" : 5123,
            "count" : 11250,
            "type" : "SCALAR"
        }
    ],
    "bufferViews" : [
        {
            "buffer" : 0,
            "byteLength" : 1128,
            "byteOffset" : 0,
            "target" : 34962
        },
        {
            "buffer" : 0,
            "byteLength" : 1128,
            "byteOffset" : 1128,
            "target" : 34962
        },
        {
            "buffer" : 0,
            "byteLength" : 752,
            "byteOffset" : 2256,
            "target" : 34962
        },
        {
            "buffer" : 0,
            "byteLength" : 752,
            "byteOffset" : 3008,
            "target" : 34962
        },
        {
            "buffer" : 0,
            "byteLength" : 192,
            "byteOffset" : 3760,
            "target" : 34963
        },
        {
            "buffer" : 0,
            "byteLength" : 41880,
            "byteOffset" : 3952,
            "target" : 34962
        },
        {
            "buffer" : 0,
            "byteLength" : 41880,
            "byteOffset" : 45832,
            "target" : 34962
        },
        {
            "buffer" : 0,
            "byteLength" : 27920,
            "byteOffset" : 87712,
            "target" : 34962
        },
        {
            "buffer" : 0,
            "byteLength" : 27920,
            "byteOffset" : 115632,
            "target" : 34962
        },
        {
            "buffer" : 0,
            "byteLength" : 27920,
            "byteOffset" : 143552,
            "target" : 34962
        },
        {
            "buffer" : 0,
            "byteLength" : 22500,
            "byteOffset" : 171472,
            "target" : 34963
        }
    ],
    "samplers" : [
        {
            "magFilter" : 9729,
            "minFilter" : 9987
        }
    ],
    "buffers" : [
        {
            "byteLength" : 193972,
            "uri" : "scene2.bin"
        }
    ]
}
