{
  "accessors": [
    {
      "bufferView": 2,
      "componentType": 5126,
      "count": 2992,
      "max": [
        0.4488030672073364,
        0.4358920156955719,
        1.6460685729980469
      ],
      "min": [
        -0.4488030970096588,
        -0.4358920753002167,
        -0.8664751052856445
      ],
      "type": "VEC3"
    },
    {
      "bufferView": 2,
      "byteOffset": 35904,
      "componentType": 5126,
      "count": 2992,
      "max": [
        1.0,
        1.0,
        1.0
      ],
      "min": [
        -1.0,
        -1.0,
        -1.0
      ],
      "type": "VEC3"
    },
    {
      "bufferView": 3,
      "componentType": 5126,
      "count": 2992,
      "max": [
        1.0,
        1.0,
        0.9999995827674866,
        1.0
      ],
      "min": [
        -1.0,
        -1.0,
        -0.9999397397041321,
        -1.0
      ],
      "type": "VEC4"
    },
    {
      "bufferView": 1,
      "componentType": 5126,
      "count": 2992,
      "max": [
        0.9568766951560974,
        0.9581642150878906
      ],
      "min": [
        0.0006142916390672326,
        0.0006142916390672326
      ],
      "type": "VEC2"
    },
    {
      "bufferView": 1,
      "byteOffset": 23936,
      "componentType": 5126,
      "count": 2992,
      "max": [
        0.9568766951560974,
        0.9581642150878906
      ],
      "min": [
        0.0006142916390672326,
        0.0006142916390672326
      ],
      "type": "VEC2"
    },
    {
      "bufferView": 1,
      "byteOffset": 47872,
      "componentType": 5126,
      "count": 2992,
      "max": [
        0.9568766951560974,
        0.9581642150878906
      ],
      "min": [
        0.0006142916390672326,
        0.0006142916390672326
      ],
      "type": "VEC2"
    },
    {
      "bufferView": 0,
      "componentType": 5125,
      "count": 11250,
      "type": "SCALAR"
    },
    {
      "bufferView": 2,
      "byteOffset": 71808,
      "componentType": 5126,
      "count": 64,
      "max": [
        0.2773430645465851,
        0.2773430347442627,
        0.39969533681869507
      ],
      "min": [
        -0.27734309434890747,
        -0.27734309434890747,
        -0.3996953070163727
      ],
      "type": "VEC3"
    },
    {
      "bufferView": 2,
      "byteOffset": 72576,
      "componentType": 5126,
      "count": 64,
      "max": [
        1.0,
        1.0,
        1.9685148799908347e-07
      ],
      "min": [
        -1.0,
        -1.0,
        3.937029546818849e-08
      ],
      "type": "VEC3"
    },
    {
      "bufferView": 3,
      "byteOffset": 47872,
      "componentType": 5126,
      "count": 64,
      "max": [
        1.0,
        1.0,
        1.0,
        1.0
      ],
      "min": [
        -1.0,
        -1.0,
        -1.0,
        1.0
      ],
      "type": "VEC4"
    },
    {
      "bufferView": 1,
      "byteOffset": 71808,
      "componentType": 5126,
      "count": 64,
      "max": [
        0.9993857741355896,
        0.9665976166725159
      ],
      "min": [
        0.0006142916390672326,
        0.2060379534959793
      ],
      "type": "VEC2"
    },
    {
      "bufferView": 1,
      "byteOffset": 72320,
      "componentType": 5126,
      "count": 64,
      "max": [
        0.9993857741355896,
        0.9665976166725159
      ],
      "min": [
        0.0006142916390672326,
        0.2060379534959793
      ],
      "type": "VEC2"
    },
    {
      "bufferView": 0,
      "byteOffset": 45000,
      "componentType": 5125,
      "count": 96,
      "type": "SCALAR"
    }
  ],
  "asset": {
    "extras": {
      "author": "Mandrake (https://sketchfab.com/mandrake_3d)",
      "license": "CC-BY-4.0 (http://creativecommons.org/licenses/by/4.0/)",
      "source": "https://sketchfab.com/3d-models/lantern-f0b0ea89f20b4f10bb583c449ae04d9c",
      "title": "Lantern"
    },
    "generator": "Sketchfab-12.68.0",
    "version": "2.0"
  },
  "bufferViews": [
    {
      "buffer": 0,
      "byteLength": 45384,
      "name": "floatBufferViews",
      "target": 34963
    },
    {
      "buffer": 0,
      "byteLength": 72832,
      "byteOffset": 45384,
      "byteStride": 8,
      "name": "floatBufferViews",
      "target": 34962
    },
    {
      "buffer": 0,
      "byteLength": 73344,
      "byteOffset": 118216,
      "byteStride": 12,
      "name": "floatBufferViews",
      "target": 34962
    },
    {
      "buffer": 0,
      "byteLength": 48896,
      "byteOffset": 191560,
      "byteStride": 16,
      "name": "floatBufferViews",
      "target": 34962
    }
  ],
  "buffers": [
    {
      "byteLength": 240456,
      "uri": "scene.bin"
    }
  ],
  "images": [
    {
      "uri": "textures/lantern_baseColor.png"
    },
    {
      "uri": "textures/lantern_metallicRoughness.png"
    },
    {
      "uri": "textures/lantern_normal.png"
    }
  ],
  "materials": [
    {
      "doubleSided": true,
      "name": "lantern",
      "normalTexture": {
        "index": 2
      },
      "pbrMetallicRoughness": {
        "baseColorTexture": {
          "index": 0
        },
        "metallicRoughnessTexture": {
          "index": 1
        }
      }
    },
    {
      "alphaMode": "BLEND",
      "doubleSided": true,
      "emissiveFactor": [
        0.12995299290297815,
        0.054185084967582266,
        0.015742788966969602
      ],
      "name": "glass",
      "normalTexture": {
        "index": 2
      },
      "pbrMetallicRoughness": {
        "baseColorFactor": [
          0.0177319702793015,
          0.013598656613294107,
          0.012895075855203697,
          0.8954955037119458
        ],
        "metallicRoughnessTexture": {
          "index": 1
        }
      }
    }
  ],
  "meshes": [
    {
      "name": "lantern1_lantern_0",
      "primitives": [
        {
          "attributes": {
            "NORMAL": 1,
            "POSITION": 0,
            "TANGENT": 2,
            "TEXCOORD_0": 3,
            "TEXCOORD_1": 4,
            "TEXCOORD_2": 5
          },
          "indices": 6,
          "material": 0,
          "mode": 4
        }
      ]
    },
    {
      "name": "lantern1_glass_0",
      "primitives": [
        {
          "attributes": {
            "NORMAL": 8,
            "POSITION": 7,
            "TANGENT": 9,
            "TEXCOORD_0": 10,
            "TEXCOORD_1": 11
          },
          "indices": 12,
          "material": 1,
          "mode": 4
        }
      ]
    }
  ],
  "nodes": [
    {
      "children": [
        1
      ],
      "matrix": [
        1.0,
        0.0,
        0.0,
        0.0,
        0.0,
        2.220446049250313e-16,
        -1.0,
        0.0,
        0.0,
        1.0,
        2.220446049250313e-16,
        0.0,
        0.0,
        0.0,
        0.0,
        1.0
      ],
      "name": "Sketchfab_model"
    },
    {
      "children": [
        2
      ],
      "matrix": [
        1.0,
        0.0,
        0.0,
        0.0,
        0.0,
        0.0,
        1.0,
        0.0,
        0.0,
        -1.0,
        0.0,
        0.0,
        0.0,
        0.0,
        0.0,
        1.0
      ],
      "name": "b70da4d0f65541f9a54fb65861a067dd.fbx"
    },
    {
      "children": [
        3
      ],
      "name": "RootNode"
    },
    {
      "children": [
        4,
        5
      ],
      "matrix": [
        100.0,
        0.0,
        0.0,
        0.0,
        0.0,
        -1.629206793918314e-05,
        -99.99999999999868,
        0.0,
        0.0,
        99.99999999999868,
        -1.629206793918314e-05,
        0.0,
        5.891182652817406e-09,
        -5.260591251499136e-07,
        -34.70067596435547,
        1.0
      ],
      "name": "lantern1"
    },
    {
      "mesh": 0,
      "name": "lantern1_lantern_0"
    },
    {
      "mesh": 1,
      "name": "lantern1_glass_0"
    }
  ],
  "samplers": [
    {
      "magFilter": 9729,
      "minFilter": 9987,
      "wrapS": 10497,
      "wrapT": 10497
    }
  ],
  "scene": 0,
  "scenes": [
    {
      "name": "Sketchfab_Scene",
      "nodes": [
        0
      ]
    }
  ],
  "textures": [
    {
      "sampler": 0,
      "source": 0
    },
    {
      "sampler": 0,
      "source": 1
    },
    {
      "sampler": 0,
      "source": 2
    }
  ]
}
